<svg width="27" height="27" viewBox="0 0 27 27" fill="none" xmlns="http://www.w3.org/2000/svg">
<circle cx="13.5" cy="13.5" r="13.5" fill="#C5B4B0"/>
<path d="M16.7664 15.3399L16.4125 15.6863C16.4125 15.6863 15.5702 16.5092 13.2718 14.2625C10.9735 12.0157 11.8159 11.1929 11.8159 11.1929L12.0383 10.9742C12.5882 10.4374 12.6403 9.57477 12.1604 8.94465L11.1804 7.65764C10.5862 6.87763 9.43898 6.77439 8.75843 7.43969L7.53733 8.63264C7.20055 8.963 6.975 9.38971 7.00222 9.86383C7.07222 11.0774 7.63066 13.6874 10.7449 16.7325C14.0481 19.9611 17.1475 20.0896 18.4145 19.9733C18.8158 19.9366 19.1643 19.7363 19.445 19.461L20.5495 18.3812C21.2961 17.6524 21.0861 16.4021 20.131 15.8921L18.6455 15.0975C18.0186 14.7633 17.2564 14.8612 16.7664 15.3399Z" fill="#430E00"/>
</svg>
